<?xml version="1.0" encoding="UTF-8"?>
<svg id="Layer_1" data-name="Layer 1" xmlns="http://www.w3.org/2000/svg" xmlns:xlink="http://www.w3.org/1999/xlink" viewBox="0 0 40 40.7">
  <defs>
    <linearGradient id="linear-gradient" x1="8.96" y1="-4.86" x2="30.37" y2="42.5" gradientUnits="userSpaceOnUse">
      <stop offset="0" stop-color="#d1d3d4"/>
      <stop offset=".66" stop-color="#989a9c"/>
      <stop offset="1" stop-color="#808284"/>
    </linearGradient>
  </defs>
  <path d="m19.71,2.94c-.29-.31-.79-.41-1.44-.32-1.01.4-1.97.9-2.89,1.49,1.05-.53,1.82-.68,2.13-.35.75.81-1.64,4.26-5.34,7.69-1.16,1.07-2.29,1.98-3.35,2.75.27.63.56,1.26.9,1.91,1.24-.87,2.56-1.93,3.86-3.14,1.36-1.27,2.55-2.54,3.54-3.76,4.44-3.48,7.96-5.4,8.74-4.56,1.08,1.16-3.57,7.23-10.39,13.55-.96.89-1.91,1.72-2.84,2.52.57.77,1.19,1.55,1.86,2.33.99-.84,2-1.73,3.01-2.66,3.76-3.49,6.93-6.98,9.13-9.95,2.75-1.7,4.74-2.4,5.35-1.74,1.31,1.41-3.96,8.43-11.77,15.67-.82.77-1.64,1.49-2.45,2.19.92.88,1.83,1.67,2.73,2.4.73-.63,1.45-1.26,2.17-1.94,4.01-3.71,7.41-7.45,9.86-10.71,1.72-.95,2.93-1.3,3.35-.85,1.08,1.16-3.57,7.23-10.39,13.55-.75.7-1.49,1.34-2.22,1.98.92.6,1.83,1.13,2.71,1.58.51-.46,1.02-.89,1.54-1.37,1.77-1.64,3.41-3.28,4.87-4.87,2.19-1.55,3.92-2.29,4.42-1.75.75.81-1.64,4.25-5.34,7.69-.38.35-.75.68-1.12.99,1.86-.73,3.62-1.81,5.17-3.25,1.62-1.51,2.88-3.27,3.75-5.17.05-.47-.03-.84-.27-1.09-.78-.84-3.03-.12-5.76,1.64,4.99-5.58,7.71-10.32,6.42-11.72-.83-.9-3.2-.23-6.38,1.59,2.94-4.11,4.22-7.32,3.09-8.55h0s0,0,0,0c-1.15-1.23-4.52-.16-8.91,2.53,2.13-3.1,3.02-5.47,2.17-6.38-1.25-1.35-5.89.81-11.56,5.05,1.63-2.31,2.33-4.22,1.61-4.99Z" style="fill: #002c62;"/>
  <path d="m24.79,37.59c-1.32.74-2.31,1.01-2.66.63-.27-.29-.13-.92.32-1.75-.11-.05-.21-.11-.32-.17-1.17,1.87-1.61,3.38-.99,4.05.23.25.6.36,1.06.35,1.53-.57,3-1.39,4.34-2.44-.58-.19-1.17-.42-1.76-.67Zm-5.94-3.35c-2.96,2.03-5.15,2.99-5.73,2.36-.42-.45.02-1.63,1.1-3.27.6-.38,1.22-.8,1.85-1.24-.91-.77-1.82-1.6-2.72-2.49-3.42,2.3-5.96,3.37-6.68,2.59-.62-.67.23-2.6,2.14-5.21.43-.28.89-.57,1.34-.88-.65-.78-1.25-1.56-1.82-2.35-2.71,1.8-4.68,2.62-5.24,2.02-.6-.65.57-2.8,2.88-5.66-.08-.14-.15-.28-.23-.41C1.85,24.39-.12,28.2,1.01,29.43c.85.92,3.28.2,6.53-1.68-3.01,4.17-4.33,7.45-3.2,8.69,0,0,0,0,0,0h0c1.13,1.22,4.43.19,8.76-2.43-2.05,3.03-2.9,5.34-2.07,6.24,1.17,1.26,5.32-.56,10.5-4.28-.89-.51-1.8-1.09-2.7-1.73Z" style="fill: #0093d0;"/>
  <path d="m1.09,20.38c-.2,0-.38-.04-.54-.11-.13-.06-.25-.15-.35-.26-.35-.41-.19-.96-.06-1.25.08-.19.19-.39.34-.61.08-.12.15-.23.22-.33l.11-.15c.23-.34.48-.66.74-.98-.59.8-.75,1.39-.52,1.66.09.11.25.17.46.17.8,0,2.37-.79,4.22-2.12l.71,1.46c-.66.39-1.45.85-2.34,1.34l-.19.1-.27.15c-.28.15-.57.3-.86.43-.38.17-1.07.49-1.68.49h0Z" style="fill: #0093d0;"/>
  <path d="m31.06,39.19c4.68.3,7.74-1.89,8.6-5.93.4-1.9-1.08-5.1-1.53-4.48,0,.89-.09,1.73-.3,2.5-2.02,7.34-13.08,6.47-23.83-5.13C3.25,14.56,3.22,3.46,10.68,2.01c1.58-.31,3.38-.13,5.29.41.53-.26-4.53-2.74-7.11-2.39C4.77.59,2.35,3.47,2.29,8.16c-.07,5.53,3.13,12.96,9.6,19.95,6.48,6.99,13.65,10.73,19.17,11.08Z" style="fill: url(#linear-gradient);"/>
</svg>